<?xml version="1.0" encoding="UTF-8"?>
<!DOCTYPE svg PUBLIC "-//W3C//DTD SVG 1.1//EN" "http://www.w3.org/Graphics/SVG/1.1/DTD/svg11.dtd">
<svg xmlns="http://www.w3.org/2000/svg" version="1.1" width="6891px" height="4240px" style="shape-rendering:geometricPrecision; text-rendering:geometricPrecision; image-rendering:optimizeQuality; fill-rule:evenodd; clip-rule:evenodd" xmlns:xlink="http://www.w3.org/1999/xlink">
<g><path style="opacity:0.997" fill="#96c6b1" d="M 2815.5,-0.5 C 2851.5,-0.5 2887.5,-0.5 2923.5,-0.5C 3034.78,2.79126 3145.78,11.6246 3256.5,26C 3336.51,37.6677 3416.51,49.3344 3496.5,61C 3542,69.3998 3587,79.8998 3631.5,92.5C 3741.85,57.9498 3854.85,42.7831 3970.5,47C 4211.73,55.6429 4435.73,121.643 4642.5,245C 4703.47,282.62 4760.47,325.62 4813.5,374C 4901.25,456.041 4979.75,545.541 5049,642.5C 5133.49,761.485 5196.15,891.485 5237,1032.5C 5292.23,1235.45 5292.23,1438.45 5237,1641.5C 5222.99,1693.85 5205.99,1745.18 5186,1795.5C 5142.18,1884.93 5087.02,1966.43 5020.5,2040C 5059.62,2055.21 5095.62,2075.55 5128.5,2101C 5142.68,2112.9 5153.85,2127.06 5162,2143.5C 5169.53,2161.96 5169.2,2180.29 5161,2198.5C 5151.11,2217.06 5137.61,2232.56 5120.5,2245C 5092.2,2265.32 5061.87,2282.32 5029.5,2296C 4957.45,2325.35 4883.45,2348.68 4807.5,2366C 4671.45,2397.01 4534.11,2420.68 4395.5,2437C 4125.09,2468.61 3853.75,2485.94 3581.5,2489C 3277.58,2493.98 2974.25,2482.98 2671.5,2456C 2493.02,2440.41 2316.02,2414.74 2140.5,2379C 2050,2360.63 1961.67,2334.96 1875.5,2302C 1838.41,2287.46 1803.74,2268.79 1771.5,2246C 1708.26,2196.33 1707.6,2146 1769.5,2095C 1808.11,2067.86 1849.78,2046.19 1894.5,2030C 1940.5,2013.06 1987.17,1998.22 2034.5,1985.5C 1957.61,1908.49 1888.44,1825.49 1827,1736.5C 1756.14,1632.44 1701.48,1520.11 1663,1399.5C 1602.28,1199.17 1596.28,997.17 1645,793.5C 1660.25,729.754 1679.92,667.421 1704,606.5C 1826.74,358.432 2018.24,186.932 2278.5,92C 2417.4,43.0203 2560.4,14.0203 2707.5,5C 2743.63,2.6071 2779.63,0.773765 2815.5,-0.5 Z M 2721.5,185.5 C 2886.58,184.262 3051.41,188.929 3216,199.5C 3263.91,205.345 3311.75,211.845 3359.5,219C 3555.16,231.553 3734.83,291.22 3898.5,398C 4094.34,527.206 4240.51,698.706 4337,912.5C 4410.92,1079.75 4439.25,1254.41 4422,1436.5C 4401.32,1623.46 4327.99,1785.79 4202,1923.5C 4161.42,1965.15 4117.59,2002.65 4070.5,2036C 4185.84,2007.65 4292.51,1960.32 4390.5,1894C 4547.47,1782.99 4635.64,1631.16 4655,1438.5C 4662.68,1342.61 4655.01,1247.95 4632,1154.5C 4605.88,1049.48 4567.55,949.144 4517,853.5C 4404.86,643.64 4255.02,464.807 4067.5,317C 4021.08,281.593 3972.75,248.926 3922.5,219C 4024.16,213.147 4124.16,223.481 4222.5,250C 4385.1,294.634 4532.44,368.301 4664.5,471C 4785.48,564.618 4884.98,676.785 4963,807.5C 5029.19,923.064 5070.86,1047.06 5088,1179.5C 5105.88,1297.74 5104.55,1415.74 5084,1533.5C 5035.36,1780.32 4901.86,1964.82 4683.5,2087C 4582.45,2140.35 4475.45,2176.35 4362.5,2195C 4275.94,2209.43 4188.77,2216.26 4101,2215.5C 3958.17,2214.86 3815.67,2209.86 3673.5,2200.5C 3625.05,2194.9 3576.71,2188.4 3528.5,2181C 3341.57,2168.8 3168.9,2113.13 3010.5,2014C 2828,1897.84 2686.16,1744.34 2585,1553.5C 2512.21,1413.01 2471.88,1263.67 2464,1105.5C 2456.87,944.814 2490.2,793.147 2564,650.5C 2626.53,535.29 2711.7,440.124 2819.5,365C 2701.46,393.535 2592.46,441.868 2492.5,510C 2315.26,637.798 2226.59,811.798 2226.5,1032C 2227.41,1126.29 2241.91,1218.46 2270,1308.5C 2306.13,1422.41 2355.46,1530.07 2418,1631.5C 2524.97,1803.95 2658.47,1953.45 2818.5,2080C 2865.98,2116.8 2915.64,2150.46 2967.5,2181C 2868.32,2187.02 2770.65,2177.35 2674.5,2152C 2490.12,2102 2325.79,2015.66 2181.5,1893C 2075.08,1802.97 1987.58,1697.8 1919,1577.5C 1866.47,1482.92 1830.8,1382.25 1812,1275.5C 1790.67,1167.29 1785.01,1058.29 1795,948.5C 1808.56,801.788 1856.89,668.122 1940,547.5C 2022.75,434.034 2127.91,347.867 2255.5,289C 2374.23,235.566 2498.56,203.233 2628.5,192C 2659.62,189.226 2690.62,187.059 2721.5,185.5 Z"/></g>
<g><path style="opacity:0.995" fill="#96c6b1" d="M 2877.5,405.5 C 2991.79,432.195 3095.79,480.695 3189.5,551C 3269.97,614.785 3333.47,692.285 3380,783.5C 3421.54,867.098 3454.2,954.098 3478,1044.5C 3500.94,1130.33 3523.28,1216.33 3545,1302.5C 3569.52,1400.39 3602.18,1495.39 3643,1587.5C 3722.83,1763.36 3846.33,1899.53 4013.5,1996C 3903.41,1969.11 3803.07,1922.11 3712.5,1855C 3637.94,1796.46 3577.11,1726.3 3530,1644.5C 3499.08,1589.66 3472.75,1532.66 3451,1473.5C 3436.33,1432.5 3422.67,1391.17 3410,1349.5C 3387.56,1271.39 3365.89,1193.05 3345,1114.5C 3321.39,1025.33 3292.39,937.998 3258,852.5C 3214.94,745.616 3155.27,649.616 3079,564.5C 3019.53,501.25 2952.36,448.25 2877.5,405.5 Z"/></g>
<g><path style="opacity:0.995" fill="#fdfdfd" d="M -0.5,3126.5 C 123.5,3126.33 247.5,3126.5 371.5,3127C 529.456,3349.08 687.289,3571.25 845,3793.5C 845.667,3616.17 845.667,3438.83 845,3261.5C 842.432,3228.54 829.266,3200.7 805.5,3178C 797.083,3172.25 789.25,3165.75 782,3158.5C 781.5,3147.84 781.333,3137.17 781.5,3126.5C 854.833,3126.5 928.167,3126.5 1001.5,3126.5C 1001.67,3137.17 1001.5,3147.84 1001,3158.5C 991.191,3168.07 981.191,3177.4 971,3186.5C 952.708,3208.1 942.374,3233.1 940,3261.5C 939.5,3582.17 939.333,3902.83 939.5,4223.5C 906.593,4223.83 873.76,4223.5 841,4222.5C 613.912,3902.66 386.579,3582.99 159,3263.5C 158.333,3541.17 158.333,3818.83 159,4096.5C 162.742,4123.64 173.742,4147.31 192,4167.5C 200.744,4176.25 210.078,4184.25 220,4191.5C 220.5,4202.16 220.667,4212.83 220.5,4223.5C 146.833,4223.5 73.1667,4223.5 -0.5,4223.5C -0.5,4212.83 -0.5,4202.17 -0.5,4191.5C 24.6721,4175.5 43.1721,4153.83 55,4126.5C 59.0819,4115.84 61.7486,4104.84 63,4093.5C 63.6667,3814.5 63.6667,3535.5 63,3256.5C 58.8899,3221.1 43.3899,3191.94 16.5,3169C 10.9309,3165.25 5.26423,3161.75 -0.5,3158.5C -0.5,3147.83 -0.5,3137.17 -0.5,3126.5 Z"/></g>
<g><path style="opacity:0.997" fill="#fdfdfd" d="M 3445.5,3126.5 C 3612.83,3126.33 3780.17,3126.5 3947.5,3127C 4017.66,3127.13 4084.99,3140.8 4149.5,3168C 4259.01,3219.14 4311.17,3305.3 4306,3426.5C 4297.68,3511.33 4258.85,3578.17 4189.5,3627C 4170.55,3639.64 4150.55,3650.48 4129.5,3659.5C 4179.63,3674.73 4224.96,3698.56 4265.5,3731C 4325.28,3783.75 4354.61,3850.25 4353.5,3930.5C 4350.98,4047.44 4297.31,4131.27 4192.5,4182C 4136.15,4206.87 4077.15,4220.54 4015.5,4223C 3825.5,4223.5 3635.5,4223.67 3445.5,4223.5C 3445.17,4212.48 3445.5,4201.48 3446.5,4190.5C 3479.93,4168.99 3500.43,4138.65 3508,4099.5C 3509.16,3958.18 3509.66,3816.85 3509.5,3675.5C 3509.66,3534.15 3509.16,3392.82 3508,3251.5C 3504.1,3226.37 3493.76,3204.37 3477,3185.5C 3466.67,3176.5 3456.33,3167.5 3446,3158.5C 3445.5,3147.84 3445.33,3137.17 3445.5,3126.5 Z M 3759.5,3221.5 C 3796.5,3221.33 3833.5,3221.5 3870.5,3222C 3935.26,3225.28 3986.09,3253.11 4023,3305.5C 4048.46,3348.69 4058.79,3395.36 4054,3445.5C 4049.72,3508.6 4022.22,3558.43 3971.5,3595C 3939.74,3614.92 3905.07,3625.59 3867.5,3627C 3831.5,3627.5 3795.5,3627.67 3759.5,3627.5C 3759.5,3492.17 3759.5,3356.83 3759.5,3221.5 Z M 3759.5,3722.5 C 3817.85,3722.04 3876.19,3722.54 3934.5,3724C 4031.23,3740.39 4086.39,3797.23 4100,3894.5C 4106.31,3944.96 4097.65,3992.63 4074,4037.5C 4040.32,4091.62 3991.49,4121.78 3927.5,4128C 3871.52,4129.44 3815.52,4129.94 3759.5,4129.5C 3759.5,3993.83 3759.5,3858.17 3759.5,3722.5 Z"/></g>
<g><path style="opacity:0.996" fill="#fdfdfd" d="M 2277.5,4239.5 C 2270.17,4239.5 2262.83,4239.5 2255.5,4239.5C 2194,4238.97 2134,4228.8 2075.5,4209C 2032.99,4194.17 1996.15,4170.67 1965,4138.5C 1928.56,4097.58 1918.06,4050.75 1933.5,3998C 1951.93,3950.94 1986.26,3924.28 2036.5,3918C 2085.51,3915.59 2123.34,3934.75 2150,3975.5C 2179.91,4033.74 2171.41,4085.57 2124.5,4131C 2141.68,4142.72 2160.68,4149.72 2181.5,4152C 2206.79,4154.9 2232.13,4155.24 2257.5,4153C 2283.14,4150.79 2306.47,4142.46 2327.5,4128C 2350.03,4108.41 2358.2,4083.91 2352,4054.5C 2347.12,4036.65 2338.45,4020.98 2326,4007.5C 2310.9,3991.56 2294.4,3977.39 2276.5,3965C 2236.5,3939 2195.84,3914 2154.5,3890C 2114.31,3866.15 2076.65,3838.82 2041.5,3808C 2009.44,3778.71 1986.27,3743.55 1972,3702.5C 1949.12,3605.43 1979.28,3529.93 2062.5,3476C 2110.23,3448.65 2161.56,3432.31 2216.5,3427C 2285,3418.84 2352.67,3423.18 2419.5,3440C 2458.73,3450.28 2494.06,3467.95 2525.5,3493C 2549.29,3512.46 2566.46,3536.63 2577,3565.5C 2589.02,3603.66 2584.02,3639.32 2562,3672.5C 2532.18,3708.44 2494.35,3721.27 2448.5,3711C 2403.96,3697.79 2377.79,3668.29 2370,3622.5C 2365.91,3583.24 2378.41,3550.58 2407.5,3524.5C 2402.35,3519.42 2396.35,3515.59 2389.5,3513C 2347.6,3496.53 2304.93,3494.2 2261.5,3506C 2234.04,3515.13 2215.54,3533.29 2206,3560.5C 2201.56,3580.65 2204.56,3599.65 2215,3617.5C 2224.36,3631.86 2235.53,3644.7 2248.5,3656C 2263.64,3668.07 2279.3,3679.4 2295.5,3690C 2333,3712.59 2370.67,3734.92 2408.5,3757C 2442.26,3777.55 2474.26,3800.55 2504.5,3826C 2526.05,3845.69 2544.89,3867.52 2561,3891.5C 2597.72,3952.78 2605.05,4017.45 2583,4085.5C 2564.57,4131.93 2533.4,4167.1 2489.5,4191C 2436.81,4218.17 2380.81,4233.51 2321.5,4237C 2306.67,4237.82 2292.01,4238.66 2277.5,4239.5 Z"/></g>
<g><path style="opacity:0.996" fill="#fdfdfd" d="M 3265.5,4239.5 C 3261.5,4239.5 3257.5,4239.5 3253.5,4239.5C 3217.09,4239.53 3183.76,4229.36 3153.5,4209C 3126.99,4187.5 3109.99,4160 3102.5,4126.5C 3049.29,4199.44 2977.29,4237.11 2886.5,4239.5C 2882.17,4239.5 2877.83,4239.5 2873.5,4239.5C 2808.66,4238.39 2751.66,4216.89 2702.5,4175C 2653.39,4127.04 2630.56,4068.54 2634,3999.5C 2637.13,3938.73 2661.63,3888.57 2707.5,3849C 2740.21,3822.29 2776.21,3800.62 2815.5,3784C 2836.34,3775.27 2857.34,3766.94 2878.5,3759C 2915.24,3746.2 2951.91,3733.2 2988.5,3720C 3013.27,3710.61 3036.61,3698.61 3058.5,3684C 3074.22,3672.9 3083.88,3657.9 3087.5,3639C 3070.12,3579.54 3032.79,3538.21 2975.5,3515C 2948.61,3505.19 2921.28,3503.52 2893.5,3510C 2889.22,3511.47 2885.22,3513.47 2881.5,3516C 2918.68,3548.87 2931.84,3589.7 2921,3638.5C 2901.94,3693.39 2863.27,3722.39 2805,3725.5C 2753.62,3723.08 2716.95,3698.75 2695,3652.5C 2673.48,3587.07 2689.31,3532.57 2742.5,3489C 2778.49,3462.68 2818.49,3445.01 2862.5,3436C 2925.32,3423.3 2988.65,3419.97 3052.5,3426C 3111.06,3430.47 3166.39,3446.14 3218.5,3473C 3284.32,3510.42 3325.49,3566.25 3342,3640.5C 3345.56,3657.33 3347.9,3674.33 3349,3691.5C 3349.33,3828.83 3349.67,3966.17 3350,4103.5C 3350.13,4139.98 3367.97,4154.82 3403.5,4148C 3413.4,4144.76 3420.9,4138.6 3426,4129.5C 3426.75,4137.5 3425.42,4145.16 3422,4152.5C 3410.1,4177.41 3392.26,4196.91 3368.5,4211C 3336.45,4229.09 3302.12,4238.59 3265.5,4239.5 Z M 3096.5,3751.5 C 3097.67,3814.67 3097.83,3878 3097,3941.5C 3091.7,3987.14 3072.87,4025.98 3040.5,4058C 2995.4,4093.31 2953.23,4090.15 2914,4048.5C 2888.29,4011.95 2879.96,3971.61 2889,3927.5C 2896.17,3896.33 2911.67,3870.16 2935.5,3849C 2952.06,3835.11 2969.73,3822.78 2988.5,3812C 3017.66,3796.92 3046.66,3781.59 3075.5,3766C 3082.91,3761.64 3089.91,3756.8 3096.5,3751.5 Z"/></g>
<g><path style="opacity:0.996" fill="#fdfdfd" d="M 4779.5,4239.5 C 4774.5,4239.5 4769.5,4239.5 4764.5,4239.5C 4677.88,4238.52 4599.88,4212.36 4530.5,4161C 4456.83,4100.21 4412,4022.37 4396,3927.5C 4381.89,3843.64 4388.89,3761.64 4417,3681.5C 4460.84,3570.66 4538.68,3494.49 4650.5,3453C 4737.23,3423.39 4825.9,3415.72 4916.5,3430C 4972.19,3438.55 5022.19,3459.88 5066.5,3494C 5123.4,3543.99 5152.07,3607.16 5152.5,3683.5C 5147.89,3795.18 5097.56,3879.01 5001.5,3935C 4924.96,3975.31 4843.63,3990.65 4757.5,3981C 4731.21,3977.95 4705.21,3973.62 4679.5,3968C 4720.11,4043.17 4783.44,4081.33 4869.5,4082.5C 4942.34,4080.18 5004.68,4053.68 5056.5,4003C 5083.43,3976.9 5103.76,3946.4 5117.5,3911.5C 5128.5,3910.17 5139.5,3910.17 5150.5,3911.5C 5133.53,3983.7 5102.69,4049.03 5058,4107.5C 4985.58,4193.79 4892.75,4237.79 4779.5,4239.5 Z M 4811.5,3519.5 C 4856.61,3517.47 4888.11,3537.13 4906,3578.5C 4917.9,3611.13 4920.24,3644.47 4913,3678.5C 4901.92,3727.83 4879.26,3770.83 4845,3807.5C 4806.92,3846.97 4762.42,3877.14 4711.5,3898C 4693.5,3905.39 4675.16,3911.89 4656.5,3917.5C 4640.79,3858.78 4637.13,3799.28 4645.5,3739C 4653.08,3679.2 4675.25,3625.7 4712,3578.5C 4732.91,3552.79 4759.07,3534.63 4790.5,3524C 4797.57,3522.15 4804.57,3520.65 4811.5,3519.5 Z"/></g>
<g><path style="opacity:0.996" fill="#fdfdfd" d="M 5818.5,4239.5 C 5814.5,4239.5 5810.5,4239.5 5806.5,4239.5C 5777.87,4238.94 5750.54,4232.44 5724.5,4220C 5687.91,4198.71 5665.07,4167.21 5656,4125.5C 5611.06,4190.08 5549.22,4227.25 5470.5,4237C 5460.35,4237.84 5450.35,4238.67 5440.5,4239.5C 5435.83,4239.5 5431.17,4239.5 5426.5,4239.5C 5363.69,4238.07 5308.02,4217.57 5259.5,4178C 5206.62,4128.06 5182.79,4066.56 5188,3993.5C 5193.06,3933.54 5218.56,3884.37 5264.5,3846C 5301.22,3817.13 5341.55,3794.13 5385.5,3777C 5436.53,3757.55 5487.86,3738.88 5539.5,3721C 5565.89,3711.47 5590.56,3698.81 5613.5,3683C 5626.42,3673 5635.25,3660.16 5640,3644.5C 5640.67,3641.5 5640.67,3638.5 5640,3635.5C 5623.84,3582.63 5591.01,3544.13 5541.5,3520C 5512.3,3506.59 5481.96,3502.92 5450.5,3509C 5445.11,3510.53 5440.11,3512.86 5435.5,3516C 5475.64,3552.79 5487.48,3597.29 5471,3649.5C 5449.35,3697.94 5411.85,3723.28 5358.5,3725.5C 5297.42,3721.57 5258.59,3690.24 5242,3631.5C 5231.93,3575.16 5248.77,3528.66 5292.5,3492C 5323.61,3468.11 5358.28,3451.11 5396.5,3441C 5465.27,3424.01 5534.94,3419.01 5605.5,3426C 5662.86,3430.26 5717.19,3445.26 5768.5,3471C 5840.22,3510.78 5883.38,3571.28 5898,3652.5C 5900.59,3667.73 5902.26,3683.07 5903,3698.5C 5903.01,3838.19 5903.68,3977.86 5905,4117.5C 5908.69,4139.1 5921.52,4150.1 5943.5,4150.5C 5959.18,4149.58 5971.35,4142.58 5980,4129.5C 5980.4,4137.12 5979.06,4144.45 5976,4151.5C 5964.49,4175.34 5947.66,4194.51 5925.5,4209C 5892.4,4228.43 5856.73,4238.59 5818.5,4239.5 Z M 5650.5,3751.5 C 5651.67,3813.67 5651.83,3876 5651,3938.5C 5646.76,3980.26 5631.1,4016.93 5604,4048.5C 5585.4,4069.05 5562.23,4080.38 5534.5,4082.5C 5506.11,4080.89 5483.28,4068.89 5466,4046.5C 5444.99,4016.13 5436.32,3982.46 5440,3945.5C 5443.86,3905.62 5461.02,3872.79 5491.5,3847C 5509.07,3832.77 5527.74,3820.1 5547.5,3809C 5573.5,3795.33 5599.5,3781.67 5625.5,3768C 5634.24,3762.97 5642.57,3757.47 5650.5,3751.5 Z"/></g>
<g><path style="opacity:0.997" fill="#fdfdfd" d="M 6890.5,4129.5 C 6890.5,4132.17 6890.5,4134.83 6890.5,4137.5C 6884.15,4160.38 6871.82,4179.55 6853.5,4195C 6824.42,4218.71 6791.09,4232.71 6753.5,4237C 6744.68,4237.82 6736.01,4238.65 6727.5,4239.5C 6723.17,4239.5 6718.83,4239.5 6714.5,4239.5C 6618.4,4235.23 6567.23,4184.9 6561,4088.5C 6560.67,3962.17 6560.33,3835.83 6560,3709.5C 6560.14,3670.06 6551.47,3632.73 6534,3597.5C 6506.5,3553.18 6467,3536.35 6415.5,3547C 6392.36,3553.82 6372.86,3566.32 6357,3584.5C 6330.52,3618.91 6315.19,3657.91 6311,3701.5C 6310.33,3833.17 6310.33,3964.83 6311,4096.5C 6318.08,4136.72 6338.58,4168.06 6372.5,4190.5C 6373.5,4201.48 6373.83,4212.48 6373.5,4223.5C 6247.83,4223.5 6122.17,4223.5 5996.5,4223.5C 5996.33,4212.49 5996.5,4201.49 5997,4190.5C 6029.46,4169.68 6049.8,4140.35 6058,4102.5C 6059.16,4020.03 6059.66,3937.53 6059.5,3855C 6059.66,3772.47 6059.16,3689.97 6058,3607.5C 6052.94,3581.87 6041.44,3559.71 6023.5,3541C 6014.58,3533.95 6005.74,3526.79 5997,3519.5C 5996.5,3508.51 5996.33,3497.51 5996.5,3486.5C 6079.84,3471.11 6163.17,3455.61 6246.5,3440C 6267.83,3439.5 6289.16,3439.33 6310.5,3439.5C 6310.33,3478.5 6310.5,3517.5 6311,3556.5C 6365.46,3476.49 6441.29,3432.33 6538.5,3424C 6585.25,3420.07 6630.25,3427.07 6673.5,3445C 6729.35,3471.85 6768.18,3514.35 6790,3572.5C 6804.34,3612.22 6811.68,3653.22 6812,3695.5C 6812.33,3834.5 6812.67,3973.5 6813,4112.5C 6816.71,4141.86 6833.21,4154.03 6862.5,4149C 6873.93,4145.39 6883.26,4138.89 6890.5,4129.5 Z"/></g>
<g><path style="opacity:0.996" fill="#fdfdfd" d="M 1745.5,4239.5 C 1741.17,4239.5 1736.83,4239.5 1732.5,4239.5C 1702.58,4239.1 1674.24,4231.94 1647.5,4218C 1614.85,4197.91 1594.01,4169.08 1585,4131.5C 1582.82,4122.6 1581.15,4113.6 1580,4104.5C 1532.55,4177.18 1465.72,4220.68 1379.5,4235C 1364.08,4237.24 1348.75,4238.74 1333.5,4239.5C 1328.83,4239.5 1324.17,4239.5 1319.5,4239.5C 1191.57,4233.42 1113.74,4167.75 1086,4042.5C 1082.52,4025.32 1080.19,4007.99 1079,3990.5C 1077.72,3864.51 1077.05,3738.51 1077,3612.5C 1072.73,3583.12 1059.9,3558.29 1038.5,3538C 1030.39,3532.19 1022.56,3526.03 1015,3519.5C 1014.5,3508.51 1014.33,3497.51 1014.5,3486.5C 1097.84,3471.11 1181.17,3455.61 1264.5,3440C 1285.83,3439.5 1307.16,3439.33 1328.5,3439.5C 1328.33,3614.17 1328.5,3788.83 1329,3963.5C 1329.89,4000.64 1338.89,4035.64 1356,4068.5C 1383.52,4111.16 1422.35,4127.33 1472.5,4117C 1501.79,4109.03 1524.96,4092.53 1542,4067.5C 1560.97,4038.28 1572.63,4006.28 1577,3971.5C 1578.65,3851.52 1578.98,3731.52 1578,3611.5C 1573.63,3581.59 1560.47,3556.43 1538.5,3536C 1531.05,3530.88 1523.88,3525.38 1517,3519.5C 1516.5,3508.51 1516.33,3497.51 1516.5,3486.5C 1599.19,3471.2 1681.86,3455.7 1764.5,3440C 1786.5,3439.5 1808.5,3439.33 1830.5,3439.5C 1830.33,3663.5 1830.5,3887.5 1831,4111.5C 1832.08,4136.58 1845.08,4149.58 1870,4150.5C 1886.25,4149.9 1898.92,4142.9 1908,4129.5C 1908.28,4141.33 1905.28,4152.33 1899,4162.5C 1875.79,4197.67 1843.63,4220.51 1802.5,4231C 1783.65,4235.86 1764.65,4238.69 1745.5,4239.5 Z"/></g>
</svg>
